<?plantuml 1.2026.2?><svg xmlns="http://www.w3.org/2000/svg" xmlns:xlink="http://www.w3.org/1999/xlink" contentStyleType="text/css" data-diagram-type="SEQUENCE" height="621px" preserveAspectRatio="none" style="width:941px;height:621px;background:#FFFFFF;" version="1.1" viewBox="0 0 941 621" width="941px" zoomAndPan="magnify"><title>Diagrama de Secuencia - Corregir Ex&#225;menes (Dise&#241;o) - Jorgestor</title><defs/><g><text fill="#000000" font-family="sans-serif" font-size="14" font-weight="bold" lengthAdjust="spacing" textLength="510.5215" x="217.2251" y="27.9951">Diagrama de Secuencia - Corregir Ex&#225;menes (Dise&#241;o) - Jorgestor</text><g><title>Frontend .React.</title><rect fill="#FFFFFF" height="373.4609" style="stroke:#181818;stroke-width:1;" width="10" x="281.3721" y="149.7266"/></g><g><title>ExamenController</title><rect fill="#FFFFFF" height="329.1953" style="stroke:#181818;stroke-width:1;" width="10" x="500.0654" y="193.9922"/></g><g><title>CorreccionService</title><rect fill="#FFFFFF" height="270.9297" style="stroke:#181818;stroke-width:1;" width="10" x="741.5005" y="223.125"/></g><g><title>CorreccionService</title><rect fill="#FFFFFF" height="40.1328" style="stroke:#181818;stroke-width:1;" width="10" x="746.5005" y="260.2578"/></g><g><title>CorreccionService</title><rect fill="#FFFFFF" height="40.1328" style="stroke:#181818;stroke-width:1;" width="10" x="746.5005" y="368.6563"/></g><rect fill="none" height="143.5313" style="stroke:#000000;stroke-width:1.5;" width="269.936" x="666.0356" y="322.3906"/><g class="participant-lifeline" data-entity-uid="part1" data-qualified-name="Teacher" id="part1-lifeline"><g><title>Docente</title><rect fill="#000000" fill-opacity="0.00000" height="422.5938" width="8" x="33.3159" y="118.5938"/><line style="stroke:#181818;stroke-width:0.5;stroke-dasharray:5,5;" x1="37" x2="37" y1="118.5938" y2="541.1875"/></g></g><g class="participant-lifeline" data-entity-uid="part2" data-qualified-name="FE" id="part2-lifeline"><g><title>Frontend .React.</title><rect fill="#000000" fill-opacity="0.00000" height="422.5938" width="8" x="282.3721" y="118.5938"/><line style="stroke:#181818;stroke-width:0.5;stroke-dasharray:5,5;" x1="286.0771" x2="286.0771" y1="118.5938" y2="541.1875"/></g></g><g class="participant-lifeline" data-entity-uid="part3" data-qualified-name="Controller" id="part3-lifeline"><g><title>ExamenController</title><rect fill="#000000" fill-opacity="0.00000" height="422.5938" width="8" x="501.0654" y="118.5938"/><line style="stroke:#181818;stroke-width:0.5;stroke-dasharray:5,5;" x1="505.062" x2="505.062" y1="118.5938" y2="541.1875"/></g></g><g class="participant-lifeline" data-entity-uid="part4" data-qualified-name="Service" id="part4-lifeline"><g><title>CorreccionService</title><rect fill="#000000" fill-opacity="0.00000" height="422.5938" width="8" x="742.5005" y="118.5938"/><line style="stroke:#181818;stroke-width:0.5;stroke-dasharray:5,5;" x1="746.0356" x2="746.0356" y1="118.5938" y2="541.1875"/></g></g><g class="participant participant-head" data-entity-uid="part1" data-qualified-name="Teacher" id="part1-head"><text fill="#000000" font-family="sans-serif" font-size="14" lengthAdjust="spacing" textLength="58.6318" x="5" y="115.292">Docente</text><ellipse cx="37.3159" cy="50.7969" fill="#E2E2F0" rx="8" ry="8" style="stroke:#181818;stroke-width:0.5;"/><path d="M37.3159,58.7969 L37.3159,85.7969 M24.3159,66.7969 L50.3159,66.7969 M37.3159,85.7969 L24.3159,100.7969 M37.3159,85.7969 L50.3159,100.7969" fill="none" style="stroke:#181818;stroke-width:0.5;"/></g><g class="participant participant-tail" data-entity-uid="part1" data-qualified-name="Teacher" id="part1-tail"><text fill="#000000" font-family="sans-serif" font-size="14" lengthAdjust="spacing" textLength="58.6318" x="5" y="553.1826">Docente</text><ellipse cx="37.3159" cy="564.9844" fill="#E2E2F0" rx="8" ry="8" style="stroke:#181818;stroke-width:0.5;"/><path d="M37.3159,572.9844 L37.3159,599.9844 M24.3159,580.9844 L50.3159,580.9844 M37.3159,599.9844 L24.3159,614.9844 M37.3159,599.9844 L50.3159,614.9844" fill="none" style="stroke:#181818;stroke-width:0.5;"/></g><g class="participant participant-head" data-entity-uid="part2" data-qualified-name="FE" id="part2-head"><rect fill="#E2E2F0" height="30.2969" rx="2.5" ry="2.5" style="stroke:#181818;stroke-width:0.5;" width="132.5898" x="220.0771" y="87.2969"/><text fill="#000000" font-family="sans-serif" font-size="14" lengthAdjust="spacing" textLength="118.5898" x="227.0771" y="107.292">Frontend (React)</text></g><g class="participant participant-tail" data-entity-uid="part2" data-qualified-name="FE" id="part2-tail"><rect fill="#E2E2F0" height="30.2969" rx="2.5" ry="2.5" style="stroke:#181818;stroke-width:0.5;" width="132.5898" x="220.0771" y="540.1875"/><text fill="#000000" font-family="sans-serif" font-size="14" lengthAdjust="spacing" textLength="118.5898" x="227.0771" y="560.1826">Frontend (React)</text></g><g class="participant participant-head" data-entity-uid="part3" data-qualified-name="Controller" id="part3-head"><rect fill="#E2E2F0" height="30.2969" rx="2.5" ry="2.5" style="stroke:#181818;stroke-width:0.5;" width="140.0068" x="435.062" y="87.2969"/><text fill="#000000" font-family="sans-serif" font-size="14" lengthAdjust="spacing" textLength="126.0068" x="442.062" y="107.292">ExamenController</text></g><g class="participant participant-tail" data-entity-uid="part3" data-qualified-name="Controller" id="part3-tail"><rect fill="#E2E2F0" height="30.2969" rx="2.5" ry="2.5" style="stroke:#181818;stroke-width:0.5;" width="140.0068" x="435.062" y="540.1875"/><text fill="#000000" font-family="sans-serif" font-size="14" lengthAdjust="spacing" textLength="126.0068" x="442.062" y="560.1826">ExamenController</text></g><g class="participant participant-head" data-entity-uid="part4" data-qualified-name="Service" id="part4-head"><rect fill="#E2E2F0" height="30.2969" rx="2.5" ry="2.5" style="stroke:#181818;stroke-width:0.5;" width="140.9297" x="676.0356" y="87.2969"/><text fill="#000000" font-family="sans-serif" font-size="14" lengthAdjust="spacing" textLength="126.9297" x="683.0356" y="107.292">CorreccionService</text></g><g class="participant participant-tail" data-entity-uid="part4" data-qualified-name="Service" id="part4-tail"><rect fill="#E2E2F0" height="30.2969" rx="2.5" ry="2.5" style="stroke:#181818;stroke-width:0.5;" width="140.9297" x="676.0356" y="540.1875"/><text fill="#000000" font-family="sans-serif" font-size="14" lengthAdjust="spacing" textLength="126.9297" x="683.0356" y="560.1826">CorreccionService</text></g><g><title>Frontend .React.</title><rect fill="#FFFFFF" height="373.4609" style="stroke:#181818;stroke-width:1;" width="10" x="281.3721" y="149.7266"/></g><g><title>ExamenController</title><rect fill="#FFFFFF" height="329.1953" style="stroke:#181818;stroke-width:1;" width="10" x="500.0654" y="193.9922"/></g><g><title>CorreccionService</title><rect fill="#FFFFFF" height="270.9297" style="stroke:#181818;stroke-width:1;" width="10" x="741.5005" y="223.125"/></g><g><title>CorreccionService</title><rect fill="#FFFFFF" height="40.1328" style="stroke:#181818;stroke-width:1;" width="10" x="746.5005" y="260.2578"/></g><g><title>CorreccionService</title><rect fill="#FFFFFF" height="40.1328" style="stroke:#181818;stroke-width:1;" width="10" x="746.5005" y="368.6563"/></g><g class="message" data-entity-1="part1" data-entity-2="part2" id="msg1"><polygon fill="#181818" points="269.3721,145.7266,279.3721,149.7266,269.3721,153.7266,273.3721,149.7266" style="stroke:#181818;stroke-width:1;"/><line style="stroke:#181818;stroke-width:1;" x1="37.3159" x2="275.3721" y1="149.7266" y2="149.7266"/><text fill="#000000" font-family="sans-serif" font-size="13" lengthAdjust="spacing" textLength="225.0562" x="44.3159" y="144.6606">Sube PDF con ex&#225;menes resueltos</text></g><g class="message" data-entity-1="part2" data-entity-2="part3" id="msg2"><polygon fill="#181818" points="488.0654,189.9922,498.0654,193.9922,488.0654,197.9922,492.0654,193.9922" style="stroke:#181818;stroke-width:1;"/><line style="stroke:#181818;stroke-width:1;" x1="291.3721" x2="494.0654" y1="193.9922" y2="193.9922"/><text fill="#000000" font-family="sans-serif" font-size="13" lengthAdjust="spacing" textLength="189.6934" x="298.3721" y="173.7935">POST /api/examenes/corregir</text><text fill="#000000" font-family="sans-serif" font-size="13" lengthAdjust="spacing" textLength="138.9185" x="298.3721" y="188.9263">(multipart/form-data)</text></g><g class="message" data-entity-1="part3" data-entity-2="part4" id="msg3"><polygon fill="#181818" points="729.5005,219.125,739.5005,223.125,729.5005,227.125,733.5005,223.125" style="stroke:#181818;stroke-width:1;"/><line style="stroke:#181818;stroke-width:1;" x1="510.0654" x2="735.5005" y1="223.125" y2="223.125"/><text fill="#000000" font-family="sans-serif" font-size="13" lengthAdjust="spacing" textLength="135.5479" x="517.0654" y="218.0591">procesarPdf(archivo)</text></g><g class="message" data-entity-1="part4" data-entity-2="part4" id="msg4"><line style="stroke:#181818;stroke-width:1;" x1="751.5005" x2="798.5005" y1="247.2578" y2="247.2578"/><line style="stroke:#181818;stroke-width:1;" x1="798.5005" x2="798.5005" y1="247.2578" y2="260.2578"/><line style="stroke:#181818;stroke-width:1;" x1="757.5005" x2="798.5005" y1="260.2578" y2="260.2578"/><polygon fill="#181818" points="767.5005,256.2578,757.5005,260.2578,767.5005,264.2578,763.5005,260.2578" style="stroke:#181818;stroke-width:1;"/><text fill="#000000" font-family="sans-serif" font-size="13" lengthAdjust="spacing" textLength="123.6206" x="763.5005" y="242.1919">contarPaginas(pdf)</text></g><g class="message" data-entity-1="part4" data-entity-2="part4" id="msg5"><line style="stroke:#181818;stroke-width:1;stroke-dasharray:2,2;" x1="756.5005" x2="798.5005" y1="299.3906" y2="299.3906"/><line style="stroke:#181818;stroke-width:1;stroke-dasharray:2,2;" x1="798.5005" x2="798.5005" y1="299.3906" y2="312.3906"/><line style="stroke:#181818;stroke-width:1;stroke-dasharray:2,2;" x1="751.5005" x2="798.5005" y1="312.3906" y2="312.3906"/><polygon fill="#181818" points="761.5005,308.3906,751.5005,312.3906,761.5005,316.3906,757.5005,312.3906" style="stroke:#181818;stroke-width:1;"/><text fill="#000000" font-family="sans-serif" font-size="13" lengthAdjust="spacing" textLength="79.79" x="763.5005" y="294.3247">numPaginas</text></g><path d="M666.0356,322.3906 L742.6597,322.3906 L742.6597,329.5234 L732.6597,339.5234 L666.0356,339.5234 L666.0356,322.3906" fill="#EEEEEE" style="stroke:#000000;stroke-width:1.5;"/><rect fill="none" height="143.5313" style="stroke:#000000;stroke-width:1.5;" width="269.936" x="666.0356" y="322.3906"/><text fill="#000000" font-family="sans-serif" font-size="13" font-weight="bold" lengthAdjust="spacing" textLength="31.624" x="681.0356" y="335.4575">loop</text><text fill="#000000" font-family="sans-serif" font-size="11" font-weight="bold" lengthAdjust="spacing" textLength="117.4819" x="757.6597" y="334.6011">[Para cada p&#225;gina]</text><g class="message" data-entity-1="part4" data-entity-2="part4" id="msg6"><line style="stroke:#181818;stroke-width:1;" x1="751.5005" x2="798.5005" y1="355.6563" y2="355.6563"/><line style="stroke:#181818;stroke-width:1;" x1="798.5005" x2="798.5005" y1="355.6563" y2="368.6563"/><line style="stroke:#181818;stroke-width:1;" x1="757.5005" x2="798.5005" y1="368.6563" y2="368.6563"/><polygon fill="#181818" points="767.5005,364.6563,757.5005,368.6563,767.5005,372.6563,763.5005,368.6563" style="stroke:#181818;stroke-width:1;"/><text fill="#000000" font-family="sans-serif" font-size="13" lengthAdjust="spacing" textLength="150.4712" x="763.5005" y="350.5903">generarNotaAleatoria()</text></g><g class="message" data-entity-1="part4" data-entity-2="part4" id="msg7"><line style="stroke:#181818;stroke-width:1;stroke-dasharray:2,2;" x1="756.5005" x2="798.5005" y1="407.7891" y2="407.7891"/><line style="stroke:#181818;stroke-width:1;stroke-dasharray:2,2;" x1="798.5005" x2="798.5005" y1="407.7891" y2="420.7891"/><line style="stroke:#181818;stroke-width:1;stroke-dasharray:2,2;" x1="751.5005" x2="798.5005" y1="420.7891" y2="420.7891"/><polygon fill="#181818" points="761.5005,416.7891,751.5005,420.7891,761.5005,424.7891,757.5005,420.7891" style="stroke:#181818;stroke-width:1;"/><text fill="#000000" font-family="sans-serif" font-size="13" lengthAdjust="spacing" textLength="29.2563" x="763.5005" y="402.7231">nota</text></g><g class="message" data-entity-1="part4" data-entity-2="part4" id="msg8"><line style="stroke:#181818;stroke-width:1;" x1="751.5005" x2="793.5005" y1="444.9219" y2="444.9219"/><line style="stroke:#181818;stroke-width:1;" x1="793.5005" x2="793.5005" y1="444.9219" y2="457.9219"/><line style="stroke:#181818;stroke-width:1;" x1="752.5005" x2="793.5005" y1="457.9219" y2="457.9219"/><polygon fill="#181818" points="762.5005,453.9219,752.5005,457.9219,762.5005,461.9219,758.5005,457.9219" style="stroke:#181818;stroke-width:1;"/><text fill="#000000" font-family="sans-serif" font-size="13" lengthAdjust="spacing" textLength="108.8687" x="758.5005" y="439.856">crearResultado()</text></g><g class="message" data-entity-1="part4" data-entity-2="part3" id="msg9"><polygon fill="#181818" points="521.0654,490.0547,511.0654,494.0547,521.0654,498.0547,517.0654,494.0547" style="stroke:#181818;stroke-width:1;"/><line style="stroke:#181818;stroke-width:1;stroke-dasharray:2,2;" x1="515.0654" x2="745.5005" y1="494.0547" y2="494.0547"/><text fill="#000000" font-family="sans-serif" font-size="13" lengthAdjust="spacing" textLength="207.4351" x="527.0654" y="488.9888">List&lt;ResultadoCorreccionDTO&gt;</text></g><g class="message" data-entity-1="part3" data-entity-2="part2" id="msg10"><polygon fill="#181818" points="297.3721,519.1875,287.3721,523.1875,297.3721,527.1875,293.3721,523.1875" style="stroke:#181818;stroke-width:1;"/><line style="stroke:#181818;stroke-width:1;stroke-dasharray:2,2;" x1="291.3721" x2="504.0654" y1="523.1875" y2="523.1875"/><text fill="#000000" font-family="sans-serif" font-size="13" lengthAdjust="spacing" textLength="133.6753" x="303.3721" y="518.1216">200 OK (Resultados)</text></g><?plantuml-src TL9BReCm4Dtx5AEiO16bwZAg8bK15ctLe2RBRgPcGYo1ZSOcwdLwX9uX5-j0KG0rPOFjUM_UcqymeI9839QCDK91i2VTajK6OGbRnqobOKW_BryrMV8G9SRJvTl54dvoN98FZfL2BJzO94wJ3RG0z70Wr2TYrI07eqs3Di0YOoTnMq3q9k4GzyWidOFIJnInhI3PLHLn3nglSt3lKMlZx9xuRFIl-71MQd01out8h67VVX3aIGRQMQ1hLKo-fIeutnLYpXYeCwMojEEDocl8T_i3hB0nA-fDab_feKdlDghRAfZEtUhek5uM630UCqugKEEvKnZShg5XQQ17pejZXAnFvkmc2Qv53OSPLGeAGiJIMFHHKnnl4A-yAT6szS1I1VtLgfnh84T6q5WWD9Ul3gj0lbisIka98x-wW8yLeMo5mIZkuNzoptBCB0cxZzumr3t_gwwPaDzac5N0meckh9gQbJqTvelnuU6A7XSfEUmsDtindTgmKFTtTx1xxjPvIEFZANKoyybhblu0?></g></svg>